<svg id="Layer_1" data-name="Layer 1" xmlns="http://www.w3.org/2000/svg" viewBox="0 0 40.98 39.97"><defs><style>.cls-1{fill:#fff;fill-rule:evenodd;}</style></defs><title>github</title><path class="cls-1" d="M25,4.58a20.49,20.49,0,0,0-6.47,39.93c1,.19,1.4-.44,1.4-1s0-1.77,0-3.48c-5.7,1.24-6.9-2.75-6.9-2.75a5.43,5.43,0,0,0-2.27-3c-1.86-1.27.14-1.25.14-1.25A4.3,4.3,0,0,1,14,35.16c1.83,3.13,4.8,2.23,6,1.7a4.38,4.38,0,0,1,1.3-2.74c-4.55-.52-9.33-2.27-9.33-10.13A7.92,7.92,0,0,1,14,18.5a7.37,7.37,0,0,1,.2-5.42s1.72-.55,5.63,2.1a19.42,19.42,0,0,1,10.26,0c3.91-2.65,5.63-2.1,5.63-2.1A7.36,7.36,0,0,1,36,18.5,7.91,7.91,0,0,1,38.07,24c0,7.87-4.79,9.6-9.35,10.11a4.89,4.89,0,0,1,1.39,3.79c0,2.74,0,4.95,0,5.62s.37,1.19,1.41,1A20.49,20.49,0,0,0,25,4.58Z" transform="translate(-4.51 -4.58)"/></svg>